<svg xmlns="http://www.w3.org/2000/svg" viewBox="0 0 64 64"><defs><style>.cls-1{fill:#ff525e;}.cls-2{fill:#d33c4a;}.cls-3{fill:#8ffffc;}.cls-4{fill:#76e2dd;}.cls-5{fill:#fff;}</style></defs><title>19.Drug</title><g id="_19.Drug" data-name="19.Drug"><rect class="cls-1" x="24.4" y="4" width="15.1" height="6"/><rect class="cls-2" x="24.4" y="4" width="4.8" height="6"/><rect class="cls-3" x="16.5" y="19" width="31" height="41" rx="8.7" ry="8.7"/><path class="cls-4" d="M31.5,60H25.2a8.7,8.7,0,0,1-8.7-8.7V27.7A8.7,8.7,0,0,1,25.2,19h6.3a8.7,8.7,0,0,0-8.7,8.7V51.3A8.7,8.7,0,0,0,31.5,60Z"/><rect class="cls-3" x="27.2" y="10" width="9.7" height="9"/><rect class="cls-4" x="27.2" y="10" width="2.7" height="9"/><rect class="cls-1" x="16.5" y="28.2" width="31" height="22.75"/><rect class="cls-2" x="16.5" y="28.2" width="6.3" height="22.75"/><polygon class="cls-5" points="38.3 37.5 38.3 41 33.7 41 33.7 45.6 30.3 45.6 30.3 41 25.7 41 25.7 37.5 30.3 37.5 30.3 32.9 33.7 32.9 33.7 37.5 38.3 37.5"/></g></svg>