<svg xmlns="http://www.w3.org/2000/svg" viewBox="0 0 512 512"><title>Artboard 109</title><g id="Beach_Ball" data-name="Beach Ball"><circle cx="256" cy="256" r="234.66667" style="fill:#b4e7f0"/><circle cx="256" cy="256" r="234.66667" style="fill:#b4e7f0"/><path d="M421.93439,90.06561c91.643,91.643,91.643,240.22575,0,331.86878s-240.22575,91.643-331.86878,0Z" style="fill:#38395e"/><path d="M409.05208,102.94792A233.637,233.637,0,0,1,426.66667,192c0,129.60286-105.06381,234.66667-234.66667,234.66667a233.64864,233.64864,0,0,1-89.05339-17.61459L90.0651,421.93359c91.64323,91.64323,240.22657,91.64323,331.8698,0,91.64192-91.64192,91.64192-240.22526,0-331.86849Z" style="fill:#2b2c53"/><path d="M368.50651,143.49349c-64.98177-64.98177-157.51823-89.043-252.526-75.487A235.30524,235.30524,0,0,0,90.0651,90.0651c-91.64192,91.64323-91.64192,240.22657,0,331.86849,91.64323,91.64323,240.22657,91.64323,331.8698,0a235.30514,235.30514,0,0,0,22.05859-25.91536C457.54948,301.01042,433.48828,208.474,368.50651,143.49349Z" style="fill:#fad47f"/><path d="M421.9349,421.93359a235.30514,235.30514,0,0,0,22.05859-25.91536c13.556-95.00781-10.50521-187.54427-75.487-252.52474L90.06641,421.93359C181.70964,513.57682,330.29167,513.57682,421.9349,421.93359Z" style="fill:#009fc2"/><path d="M379.125,213.33333c-18.75,0-39.39583-9.4375-55.20833-25.25L339,173c18.89583,18.88542,46.5,24.48958,59.16667,11.83333,13.04166-13.05208,7.72916-39.59375-11.83334-59.16666l15.08334-15.08334c28.35416,28.35417,33.5625,67.59375,11.83333,89.33334C404.47917,208.69792,392.66667,213.33333,379.125,213.33333Z" style="fill:#0077ab"/><path d="M413.25,199.91667l-15.08333-15.08334c13.04166-13.05208,7.72916-39.59375-11.83334-59.16666l15.08334-15.08334C429.77083,138.9375,434.97917,178.17708,413.25,199.91667Z" style="fill:#2b2c53"/><path d="M421.9349,421.93359a235.30514,235.30514,0,0,0,22.05859-25.91536c8.53646-59.82552,2.08984-118.64063-20.03125-170.24349C407.54818,339.32943,310.10156,426.66667,192,426.66667a233.637,233.637,0,0,1-89.05208-17.61459L90.06641,421.93359C181.70964,513.57682,330.29167,513.57682,421.9349,421.93359Z" style="fill:#0077ab"/><path d="M121.92578,200.36458c-49.1263,49.125-75.78,109.0612-76.01172,159.87761A232.01341,232.01341,0,0,0,151.75781,466.08594c50.81771-.23177,110.75261-26.88672,159.87761-76.01172,78.487-78.487,99.64583-184.582,47.25911-236.96875S200.41276,121.8763,121.92578,200.36458Z" style="fill:#f9578f"/><path d="M475.599,173.74349A232.805,232.805,0,0,0,338.25521,36.401c26.00521,26.00521,24.41146,112.93229,24.41146,112.93229S449.5944,147.73893,475.599,173.74349Z" style="fill:#7b7c94"/><path d="M387.20182,61.78906a233.326,233.326,0,0,1,36.27865,91.987c20.819,3.40755,41.52474,9.3737,52.11849,19.96745A233.431,233.431,0,0,0,421.9349,90.0651,230.95189,230.95189,0,0,0,387.20182,61.78906Z" style="fill:#4a4b6c"/><path d="M61.70312,387.14844a230.33738,230.33738,0,0,0,28.362,34.78515,233.97052,233.97052,0,0,0,61.69271,44.15235c47.34115-.21615,102.48308-23.6263,149.53907-66.50912A234.32283,234.32283,0,0,1,61.70312,387.14844Z" style="fill:#e41a67"/><path d="M379.125,213.33333c-18.75,0-39.39583-9.4375-55.20833-25.25L339,173c11.89583,11.89583,26.89583,19,40.125,19Z" style="fill:#e41a67"/><ellipse cx="362.66667" cy="149.33333" rx="33.46693" ry="50.2004" transform="translate(0.62799 300.18278) rotate(-45)" style="fill:#f3fbfd"/><path d="M403.9375,155.03125c-2.625-10.20833-8.875-20.63542-17.60417-29.36458l15.08334-15.08334c11.54166,11.54167,19.5625,25.07292,23.1875,39.13542Z" style="fill:#4a4b6c"/><ellipse cx="192" cy="192" rx="126.77501" ry="81.72003" transform="translate(-79.529 192) rotate(-45)" style="fill:#fef3dc"/><path d="M121.92578,200.36458A294.04512,294.04512,0,0,0,86.19922,243.832c1.40495,14.77214,6.35286,28.00651,16.15755,37.8112,31.91406,31.91406,97.91927,17.64974,147.42839-31.85938,39.80208-39.80208,56.3177-89.987,44.8789-124.82682C241.34245,120.24219,175.27344,147.01693,121.92578,200.36458Z" style="fill:#fcafc9"/></g></svg>